<svg viewBox="0 0 399 80" xmlns="http://www.w3.org/2000/svg"><path d="M59.58 26.48H43.26v-9.06h16.32zm0 11.76H43.26v-9.18h16.32zm-35.7-9.18H40.5v9.18H23.88zm0-11.64H40.5v9.06H23.88zm38.52-2.7H21.06v26.16H62.4zm-12.66 36.9c-2.82-2.7-8.34-6.3-13.02-8.7l-1.92 1.8c4.68 2.46 10.2 6.3 12.96 8.94zM18 63.56c3.06-3.9 5.22-10.26 6.66-15l-2.52-.9c-1.32 4.56-3.6 10.74-6.72 14.52zm18.66-1.2c-3.66 0-4.32-.36-4.32-1.98V47.24h-2.88v13.14c0 3.78 1.56 4.68 7.2 4.68h13.32c5.1 0 6.12-1.86 6.6-9.84-.84-.18-1.98-.6-2.76-1.14-.3 7.2-.78 8.28-3.96 8.28zM56.88 47.9c3.6 4.62 7.26 10.98 8.7 15.06l2.76-1.26c-1.5-4.02-5.28-10.26-8.88-14.88zm32.64-28.38c-2.28-1.74-6.78-4.68-10.14-6.66l-1.68 1.92c3.36 2.1 7.8 5.16 10.08 7.08zm-2.82 15.6c-2.34-1.68-6.9-4.38-10.26-6.18l-1.74 1.92c3.54 1.92 7.98 4.8 10.32 6.6zm-.96 9.3c-2.76 6.66-6.72 14.76-9.48 19.38l2.52 1.68c3-5.4 6.6-13.08 9.3-19.38zm9.66-26.88h33.3v-2.7H92.58v16.38c0 9.9-.66 23.46-7.5 33.3.6.24 1.86.96 2.34 1.44 7.02-10.02 7.98-24.42 7.98-34.74zm7.08 32.04c-1.86 4.14-4.74 8.4-7.74 11.4.66.42 1.92 1.2 2.4 1.56 2.88-3.12 5.94-7.8 8.04-12.3zm-.06-12.9h20.88v6.48h-20.88zm0-8.7h20.88v6.36h-20.88zm23.64 17.64v-20.1h-13.92c.72-1.74 1.5-3.84 2.22-5.76l-3.06-.78c-.42 1.86-1.2 4.56-1.86 6.54h-9.72v20.1h11.52v17.34c0 .66-.24.9-1.08.96-.72 0-3.42.06-6.72-.06.36.78.72 1.8.9 2.52 4.14.06 6.6.06 7.98-.42 1.32-.48 1.68-1.26 1.68-3V45.62zm-6.66 4.56c2.64 3.78 5.76 8.88 7.32 11.82l2.64-1.26c-1.62-2.88-4.8-7.8-7.5-11.52zm49.5-20.28c1.8-2.58 4.02-6.6 5.82-9.96l-2.4-1.02c-1.26 3-3.6 7.38-5.34 10.02zm-19.86-10.2c1.86 2.94 3.6 6.84 4.2 9.42l2.28-.96c-.6-2.46-2.46-6.3-4.38-9.24zm-4.56 11.34V17h16.02v14.04zm34.56 0h-15.72V17h15.72zm9.48 18.12h-25.2v-6.84h19.98V39.8h-19.98v-6.18h18.6V14.48h-40.2v19.14h18.78v6.18h-19.92v2.52h19.92v6.84h-24.96v2.64h52.98zm-50.04 17.46c2.94-2.64 5.4-6.96 6.96-10.68l-2.64-.72c-1.5 3.72-4.08 7.74-6.84 10.08zm14.46-10.26c.78 3.12 1.26 7.26 1.26 9.66l2.82-.42c0-2.28-.6-6.36-1.38-9.36zm12.48.06c1.44 3.06 2.88 7.14 3.48 9.6l2.82-.72c-.66-2.4-2.16-6.42-3.6-9.36zm12.36-.18c3.06 3.12 6.54 7.44 8.16 10.14l2.64-1.2c-1.68-2.76-5.16-6.96-8.22-9.9zm30.36-43.98c-3.12 9.36-8.1 18.66-13.56 24.72.54.66 1.5 1.98 1.8 2.58 2.04-2.4 4.14-5.22 6-8.34v35.1h2.76V26.36c2.16-4.2 4.14-8.76 5.7-13.38zm40.74 15.48v-2.76h-18.72V12.14h-2.82v12.84H209.4v2.76h15.66c-3.9 10.56-10.62 21.18-17.46 26.4.72.48 1.68 1.44 2.1 2.1 6.96-5.76 13.62-16.62 17.64-27.84v23.52H216.3v2.7h11.04v11.52h2.82V54.62h10.56v-2.7h-10.56V28.34C234 39.5 240.54 50.42 247.5 56.12c.6-.72 1.56-1.8 2.22-2.34-6.84-5.04-13.5-15.48-17.16-26.04zM274.2 46.4c5.64-5.52 11.34-12.6 16.38-19.92l-2.58-1.5c-1.38 2.22-2.94 4.44-4.5 6.6l-10.86 1.08c4.26-5.28 8.46-12.24 11.94-19.08l-2.76-1.32c-3.24 7.44-8.46 15.3-10.02 17.28-1.5 2.04-2.7 3.54-3.72 3.78.3.78.78 2.16.96 2.82.96-.36 2.34-.66 12.36-1.8-3.48 4.38-6.72 8.04-8.04 9.3-2.1 2.28-3.78 3.72-4.98 3.96.36.78.84 2.16 1.02 2.82 1.2-.6 3.12-1.02 20.94-3.78-.12-.54-.18-1.74-.12-2.52zm-5.46 15.96l21.96-4.44-.18-2.58c-8.34 1.62-16.68 3.24-22.26 4.2zm53.88-26.4h-14.7V18.08c4.44-.78 8.58-1.68 11.7-2.76l-2.34-2.28c-5.52 1.98-16.08 3.66-24.72 4.62.36.66.72 1.74.9 2.4 3.72-.3 7.68-.84 11.58-1.44v17.34h-14.7v2.88h14.7v27.54h2.88V38.84h14.7zm5.82 26.52c5.82-1.26 13.86-2.82 21.72-4.5l-.18-2.64c-8.28 1.62-16.62 3.24-22.08 4.2zm3.9-29.88c4.2-5.4 8.28-12.48 11.76-19.56l-2.88-1.26c-3.12 7.56-8.28 15.54-9.78 17.58-1.5 2.16-2.7 3.66-3.72 3.84.42.84.9 2.34 1.08 2.94.84-.36 2.28-.6 12.42-1.8-3.54 4.38-6.84 7.98-8.22 9.3-2.04 2.16-3.6 3.6-4.86 3.84.36.84.84 2.28 1.02 2.94 1.08-.6 3.06-1.02 20.88-3.78-.06-.6-.18-1.74-.12-2.58l-15.96 2.34c5.64-5.46 11.28-12.48 16.38-19.68l-2.7-1.5c-1.32 2.1-2.82 4.26-4.32 6.3zm35.34 26.1V39.92h10.2V58.7zm-13.26-18.78h10.56V58.7h-10.56zm10.56-21.78v19.02h-10.56V18.14zm12.9 19.02h-10.2V18.14h10.2zm-26.16-21.84v50.34h2.7V61.4h23.46v3.78h2.82V15.32z"/></svg>