<svg viewBox="0 0 399 80" xmlns="http://www.w3.org/2000/svg"><path d="M58.62 26.12H43.8v-8.04h14.82zm0 11.52H43.8v-8.16h14.82zm-33.9-8.16H39.9v8.16H24.72zm0-11.4H39.9v8.04H24.72zm37.86-3.54H20.94v26.64h41.64zm-12.42 36.6c-2.64-2.7-8.16-6.24-12.66-8.52l-2.58 2.4c4.5 2.46 9.96 6.24 12.54 8.82zM18.78 63.5c3-3.84 5.1-10.08 6.54-15l-3.54-1.2c-1.26 4.62-3.6 10.62-6.54 14.34zm18.72-1.92c-3.48 0-4.14-.36-4.14-1.98V47.36H29.4V59.6c0 4.44 1.68 5.64 7.86 5.64h12.48c5.34 0 6.6-1.92 7.14-10.02-1.08-.24-2.76-.9-3.66-1.5-.3 6.84-.84 7.86-3.84 7.86zm19.02-13.56C60 52.7 63.54 59 64.8 63.02l3.9-1.74c-1.44-4.08-5.1-10.14-8.64-14.7zM89.88 19.1c-2.28-1.8-6.78-4.62-10.08-6.48l-2.34 2.7c3.3 2.1 7.74 5.04 10.02 6.9zm-2.82 15.54c-2.34-1.62-6.9-4.26-10.26-6l-2.22 2.76c3.36 1.92 7.8 4.74 10.14 6.48zm-1.98 9.54c-2.7 6.66-6.48 14.64-9.18 19.26l3.48 2.22c2.88-5.52 6.36-12.96 8.88-19.26zm11.22-25.8h32.52v-3.66H92.46v16.44c0 9.84-.66 23.34-7.5 33 .9.42 2.64 1.38 3.3 2.1 7.08-10.02 8.04-24.72 8.04-35.1zm6.06 31.26c-1.74 3.96-4.5 8.22-7.38 11.22.96.48 2.58 1.38 3.24 2.04 2.7-3.12 5.76-7.92 7.74-12.3zm1.32-12.36h19.02v5.7h-19.02zm0-8.52h19.02v5.58h-19.02zm22.74 17.34V25.64h-13.38c.78-1.62 1.62-3.48 2.4-5.28l-4.38-.9c-.42 1.74-1.14 4.2-1.74 6.18h-9.24V46.1H111v16.08c0 .66-.24.9-1.02.96-.72 0-3.36 0-6.36-.06.54 1.02 1.02 2.4 1.2 3.42 3.96.06 6.48.06 8.1-.54 1.5-.6 1.92-1.62 1.92-3.72V46.1zm-7.2 4.44c2.46 3.78 5.4 8.76 6.84 11.76l3.66-1.68c-1.56-2.82-4.62-7.74-7.08-11.4zM169.5 29.9c1.56-2.4 3.66-6.24 5.28-9.48l-3.06-1.2c-1.14 2.82-3.24 7.02-4.86 9.6zm-20.46-9.72c1.74 2.82 3.36 6.66 3.9 9.06l2.88-1.08c-.54-2.46-2.28-6.12-4.08-8.94zm-3.66 10.74V17.6h14.58v13.32zm32.82 0h-14.28V17.6h14.28zm10.32 17.82h-24.6v-5.82h19.5v-3.36h-19.5v-5.28h18.3v-20.1h-40.68v20.1h18.42v5.28h-19.5v3.36h19.5v5.82h-24.42v3.6h52.98zm-49.2 18.06c2.94-2.7 5.4-7.02 6.9-10.86l-3.78-.9c-1.5 3.66-4.02 7.68-6.72 9.96zm13.32-10.38c.66 3.18 1.08 7.32 1.14 9.78l3.84-.54c0-2.34-.54-6.42-1.32-9.54zm12.36.12c1.32 3.06 2.7 7.14 3.24 9.6l3.9-.96c-.6-2.4-2.1-6.42-3.48-9.42zm12.12-.24c2.94 3.18 6.36 7.56 7.8 10.32l3.84-1.56c-1.68-2.82-5.04-7.08-8.1-10.02zm30.36-44.22c-3 9.18-7.92 18.18-13.26 24.06.78.96 1.98 2.94 2.34 3.9 1.86-2.16 3.72-4.62 5.4-7.38v33.78h3.78V26.12c2.1-4.14 3.96-8.58 5.46-12.96zM249 28.04V24.2h-18.18V12.02h-3.84V24.2h-17.16v3.84h14.58c-3.72 10.26-10.14 20.52-16.74 25.74.9.72 2.16 2.1 2.88 3 6.48-5.76 12.54-15.9 16.44-26.64v21.48h-10.2v3.6h10.2v11.04h3.84V55.22h9.96v-3.6h-9.96V29.9c3.72 10.62 9.72 21.06 16.14 26.76.78-1.08 2.16-2.46 3.06-3.18-6.6-5.1-12.84-15.24-16.5-25.44zm48.3 14.88V26.48h17.82v16.44zm-21.9 0V26.48h17.76v16.44zm21.9-20.34V11.84h-4.14v10.74h-21.72v28.08h3.96v-3.78h17.76v19.56h4.14V46.88h17.82v3.48h4.08V22.58zm31.26 40.32c5.82-1.2 13.8-2.76 21.48-4.32l-.18-3.6c-8.22 1.56-16.5 3.06-22.02 3.96zm4.92-30.96c4.02-5.22 7.92-11.94 11.16-18.6l-3.9-1.68c-2.94 7.38-7.92 15.12-9.42 17.16-1.44 2.04-2.64 3.54-3.72 3.72.48 1.08 1.14 3.06 1.38 3.9.9-.42 2.4-.78 11.4-1.74-3.18 4.02-6.12 7.26-7.44 8.52-2.04 2.04-3.6 3.48-4.86 3.66.42 1.08 1.08 3 1.26 3.84 1.26-.66 3.3-1.14 20.64-3.9-.12-.72-.24-2.34-.18-3.36l-14.4 2.04c5.34-5.16 10.62-11.58 15.18-18.18l-3.48-2.16c-1.2 1.98-2.58 4.02-3.9 5.88zm34.62 26.04V40.52h8.94v17.46zm-12.9-17.46h9.18v17.46h-9.18zm9.18-21.54V36.8h-9.18V18.98zm12.66 17.82h-8.94V18.98h8.94zm-25.56-21.78v50.7h3.72V61.7h21.84v3.48h3.84V15.02z"/></svg>