<svg viewBox="0 0 401 80" xmlns="http://www.w3.org/2000/svg"><path d="M58.26 25.94H44.04v-7.56h14.22zm0 11.4H44.04v-7.62h14.22zm-33.18-7.62h14.58v7.62H25.08zm0-11.34h14.58v7.56H25.08zm37.56-3.96H20.88V41.3h41.76zM50.4 50.96c-2.7-2.7-8.1-6.3-12.54-8.46l-2.94 2.7c4.44 2.4 9.84 6.06 12.42 8.76zM19.14 63.5c2.94-3.84 5.04-10.08 6.48-15l-3.96-1.38c-1.32 4.68-3.6 10.56-6.54 14.28zm18.66-2.28c-3.36 0-3.96-.3-3.96-1.98V47.42H29.4V59.3c0 4.74 1.68 6.06 8.1 6.06h12.06c5.46 0 6.9-2.04 7.5-10.14-1.26-.3-3.12-.96-4.14-1.68-.3 6.72-.78 7.68-3.72 7.68zm18.6-13.14c3.42 4.68 6.9 10.92 8.1 14.94l4.32-1.92c-1.38-4.08-4.98-10.14-8.46-14.64zM90 18.86c-2.28-1.74-6.78-4.5-10.02-6.36l-2.58 3.06c3.24 2.1 7.68 5.04 9.96 6.84zm-2.82 15.6c-2.34-1.62-6.9-4.14-10.14-5.94l-2.58 3.12c3.36 1.86 7.8 4.68 10.08 6.42zm-2.34 9.6c-2.76 6.72-6.48 14.58-9.12 19.2l3.96 2.46c2.82-5.52 6.18-12.9 8.64-19.2zM96.72 18.8h32.1v-4.08H92.34V31.1c0 9.84-.6 23.34-7.38 32.94 1.02.42 2.94 1.56 3.66 2.34 7.08-10.02 8.1-24.84 8.1-35.28zm5.52 30.84c-1.74 3.96-4.38 8.22-7.14 11.1 1.08.6 2.76 1.62 3.6 2.28 2.58-3.12 5.58-7.92 7.56-12.3zm1.92-12.06h18.24v5.28h-18.24zm0-8.46h18.24v5.22h-18.24zm22.38 17.16V25.7h-13.08c.78-1.56 1.62-3.3 2.46-5.04l-4.98-1.02c-.36 1.68-1.08 4.14-1.74 6.06h-9.06v20.58h10.74v15.6c0 .66-.24.84-1.02.9-.66 0-3.3.06-6.18-.06.54 1.14 1.08 2.7 1.26 3.84 4.02.06 6.54.06 8.16-.6 1.68-.66 2.04-1.8 2.04-4.02V46.28zm-7.38 4.38c2.34 3.78 5.28 8.76 6.6 11.76l4.08-1.8c-1.5-2.88-4.5-7.8-6.84-11.46zm50.52-20.7c1.56-2.4 3.54-6.12 5.22-9.36l-3.48-1.32c-1.02 2.82-3.06 6.9-4.62 9.48zm-20.58-9.6c1.62 2.82 3.24 6.6 3.72 8.94l3.12-1.2c-.48-2.34-2.16-6-3.9-8.76zm-3.36 10.44V17.84h13.98V30.8zm32.16 0h-13.8V17.84h13.8zm10.62 17.76H164.1v-5.4h19.38V39.5H164.1v-4.92h18.24V14.06h-40.86v20.52h18.24v4.92h-19.26v3.66h19.26v5.4h-24.18v3.96h52.98zm-48.78 18.3c2.88-2.7 5.28-7.08 6.78-10.92l-4.26-1.02c-1.44 3.66-3.96 7.68-6.66 9.96zm12.72-10.44c.66 3.24 1.08 7.38 1.08 9.84l4.38-.6c0-2.34-.54-6.48-1.32-9.54zm12.3.12c1.26 3.12 2.64 7.2 3.18 9.72l4.38-1.08c-.54-2.46-2.04-6.48-3.42-9.48zm12.12-.24c2.88 3.18 6.18 7.62 7.62 10.38l4.32-1.68c-1.62-2.82-4.98-7.14-7.92-10.08zm30.36-44.28c-3 9.06-7.86 18-13.14 23.82.78 1.02 2.1 3.36 2.58 4.38 1.74-2.04 3.48-4.38 5.1-6.9V66.5h4.26V25.94c2.04-4.08 3.9-8.4 5.34-12.66zM249 28.16v-4.32h-17.88V12.02h-4.32v11.82H210v4.32h14.1c-3.66 10.14-9.9 20.28-16.44 25.5 1.02.78 2.46 2.34 3.24 3.36 6.3-5.76 12.06-15.6 15.9-25.98v20.4h-9.78v4.08h9.78v10.74h4.32V55.52h9.66v-4.08h-9.66V30.62c3.66 10.44 9.42 20.52 15.72 26.28.78-1.2 2.28-2.76 3.36-3.54-6.48-5.22-12.66-15.18-16.2-25.2zm35.28 4.44h22.62v5.88h-22.62zm32.58 14.16h-18.42v-4.92h12.9v-12.6h-31.32v12.6h13.92v4.92h-19.26v17.16h4.44V50.84h14.82v15.78h4.5V50.84h13.92v8.4c0 .72-.3.9-1.2.96-.9.06-4.08.06-7.68-.06.6 1.2 1.32 2.82 1.56 4.08 4.62 0 7.62 0 9.48-.72 1.86-.66 2.34-1.86 2.34-4.2zm-5.82-34.5c-1.14 2.16-3.3 5.34-4.98 7.32l3.6 1.5c1.74-1.8 4.02-4.56 6-7.2zm9.48 8.82h-22.44v-9.3h-4.5v9.3h-12.54l3.72-1.68c-1.02-1.98-3.12-4.92-5.1-7.02L275.7 14c1.74 2.16 3.78 5.1 4.68 7.08h-9.6v12.84h4.26v-8.94h41.1v8.94h4.38zm37.74-2.4h16.56v27.66h4.38V14.72H354v31.62h4.26zm-6.72 35.76c-1.44-1.8-7.5-8.94-9.84-11.4.12-1.14.24-2.22.36-3.3h9.06v-4.2h-8.88c.06-1.26.06-2.58.06-3.78v-5.88h8.16v-4.14h-8.16v-9.3h-4.2v9.3h-8.58v4.14h8.58v5.94c0 1.14 0 2.46-.06 3.72h-9.84v4.2h9.66c-.6 8.04-2.7 17.22-10.02 23.16 1.08.66 2.58 2.16 3.12 3.06 5.7-5.04 8.58-11.7 9.96-18.36 2.64 3.3 6.12 7.86 7.5 10.2zm21 7.32c-1.56 0-2.04-.36-2.04-1.98V44.6h-2.76c.72-3.24.96-6.42.96-9.36V23.78h-4.2v11.4c0 9.24-1.86 20.46-16.86 28.14.78.6 2.22 2.34 2.76 3.24 9.06-4.74 13.74-11.1 16.08-17.58V60.2c0 4.02 1.56 5.1 5.46 5.1h4.74c4.92 0 5.64-2.34 6.12-11.64-1.08-.24-2.58-.9-3.66-1.74-.24 8.28-.54 9.84-2.4 9.84z"/></svg>