<svg viewBox="0 0 399 80" xmlns="http://www.w3.org/2000/svg"><path d="M60.48 26.84h-17.7V16.7h17.7zm0 12h-17.7V28.58h17.7zm-37.5-10.26h18.06v10.26H22.98zm0-11.88h18.06v10.14H22.98zm39.24-1.74H21.24v25.62h40.98zm-12.96 37.2c-2.88-2.7-8.52-6.48-13.32-8.88l-1.2 1.08c4.8 2.52 10.5 6.42 13.32 9.06zm-32.04 11.4c3.12-3.9 5.34-10.32 6.78-15l-1.56-.54c-1.26 4.5-3.6 10.92-6.78 14.76zm18.66-.42c-3.84 0-4.56-.42-4.56-1.98V47.12h-1.74V61.1c0 3.18 1.44 3.78 6.48 3.78h14.28c4.74 0 5.52-1.8 5.88-9.66-.54-.12-1.2-.36-1.74-.78-.3 7.56-.84 8.7-4.2 8.7zm21.36-15.42c3.72 4.68 7.5 11.1 9.06 15.18l1.68-.84c-1.5-3.96-5.46-10.32-9.18-15zM89.16 20c-2.28-1.8-6.66-4.8-10.14-6.9l-1.14 1.08c3.48 2.22 7.86 5.34 10.2 7.26zM86.4 35.54c-2.4-1.68-6.9-4.44-10.44-6.42l-1.08 1.2c3.6 2.04 8.1 4.92 10.5 6.72zm.06 9.18c-2.88 6.6-6.96 14.82-9.84 19.44l1.5 1.2c3.06-5.34 7.02-13.26 9.72-19.5zm8.04-28.08h34.08V14.9H92.76v16.38c0 10.02-.72 23.58-7.62 33.54.36.18 1.14.6 1.44.9 7.02-10.08 7.92-24.18 7.92-34.44zm8.16 32.88c-2.04 4.26-5.04 8.58-8.22 11.64.48.3 1.32.84 1.62 1.14 3-3.12 6.18-7.86 8.34-12.3zm-1.5-13.44h22.8v7.32h-22.8zm0-8.94h22.8v7.2h-22.8zm24.54 18V25.4h-14.46c.72-1.86 1.44-4.2 2.1-6.24l-1.8-.6c-.42 1.92-1.26 4.74-1.92 6.84h-10.2v19.74h12.06v18.54c0 .72-.24.96-1.08 1.02-.78 0-3.6.06-7.26-.06.3.54.6 1.14.72 1.62 4.26.06 6.66.06 7.86-.3 1.14-.36 1.5-.9 1.5-2.28V45.14zm-6.12 4.8c2.82 3.72 6.18 8.82 7.8 11.76l1.68-.9c-1.74-2.82-5.1-7.8-7.92-11.52zm18 16.56c3-2.64 5.52-6.96 7.14-10.68l-1.56-.36c-1.5 3.66-4.14 7.74-6.96 10.14zm15.72-10.2c.78 3.12 1.32 7.2 1.38 9.6l1.68-.3c0-2.28-.6-6.3-1.38-9.36zm12.6 0c1.44 3.06 3.06 7.08 3.72 9.54l1.62-.48c-.66-2.34-2.22-6.42-3.72-9.36zm12.54-.12c3.18 3.06 6.78 7.32 8.4 10.02l1.56-.9c-1.74-2.7-5.28-6.84-8.46-9.78zm-10.08-26.34c1.92-2.64 4.38-6.84 6.24-10.26l-1.74-.84c-1.32 3.06-3.9 7.68-5.82 10.38zm-19.38-10.56c1.98 3 3.9 7.08 4.56 9.66l1.62-.72c-.66-2.58-2.58-6.54-4.68-9.54zm-5.34 11.94v-14.7h17.4v14.7zm36.24 0h-17.1v-14.7h17.1zm-17.1 18.36v-7.86h20.34v-1.74h-20.34v-7.02h18.84V14.78H141.9v18.18h19.14v7.02H140.7v1.74h20.34v7.86h-25.5v1.74h52.98v-1.74zm46.02-37.14c-3.18 9.6-8.28 19.08-13.92 25.32.48.36 1.08 1.02 1.32 1.38 2.28-2.7 4.56-5.88 6.6-9.42v36.42h1.74V26.6c2.28-4.26 4.32-8.94 5.94-13.8zm39.96 15.06v-1.74h-19.32V12.32h-1.74v13.44h-18.66v1.74h16.68c-3.96 10.86-11.1 21.84-18.18 26.94.48.3 1.08.9 1.32 1.32 7.2-5.64 14.52-16.8 18.6-28.26h.24v24.78h-11.88v1.74h11.88v12h1.74v-12h11.28v-1.74h-11.28V27.5h.36c3.9 11.34 10.86 22.68 18.24 28.08.42-.42.96-1.08 1.44-1.44-7.2-4.92-14.16-15.78-17.88-26.64zm39 11.88c-1.08-1.8-5.76-9-7.26-10.92v-2.58h7.86v-1.74h-7.86v-12h-1.74v12h-9v1.74h8.58c-2.04 9.24-6.42 19.86-10.44 25.26.48.3 1.02.9 1.32 1.38 3.54-4.74 7.2-13.44 9.54-21.66v35.28h1.74v-35.1c1.92 2.94 4.92 7.98 5.94 9.9zm23.76-21.36c-1.44 5.7-3.48 12.96-5.1 17.34h11.46c-1.8 7.56-4.98 13.74-9.06 18.66-5.1-6.48-8.76-14.94-10.92-24.18.3-3.72.48-7.62.66-11.82zm7.5 15.48l-.42.12h-9.72c1.56-4.86 3.48-11.94 4.98-17.34h-25.14v1.74h7.98c-.66 21.66-2.64 37.26-13.14 47.1.48.3 1.26.9 1.62 1.14 7.62-7.74 10.8-17.94 12.3-31.74 2.34 8.04 5.64 15.18 10.14 20.82-3.84 4.26-8.4 7.38-13.26 9.6.48.3 1.02 1.02 1.32 1.44 4.74-2.28 9.3-5.4 13.14-9.6 3.48 4.02 7.62 7.2 12.42 9.3.36-.54.9-1.2 1.38-1.56-4.92-1.92-9.06-5.04-12.6-9.12 4.56-5.4 8.1-12.42 10.14-21.3zm13.38 13.74c6-5.7 12.06-13.2 17.64-21.12l-1.92-.9c-1.44 2.28-3.12 4.56-4.74 6.84l-12.18 1.26c4.32-5.58 8.58-13.08 12.24-20.52l-1.86-.84c-3.24 7.68-8.58 15.9-10.14 18-1.5 2.22-2.7 3.78-3.66 3.96.3.54.6 1.56.72 1.98.78-.36 2.16-.6 13.38-1.98-3.78 4.8-7.38 8.76-8.82 10.14-2.1 2.22-3.72 3.78-4.86 3.96.24.6.6 1.62.72 2.1.96-.54 2.76-.84 21.18-3.72-.06-.36-.12-1.14-.06-1.68zM328.32 62c5.76-1.26 13.86-2.88 21.84-4.5l-.12-1.8c-8.34 1.74-16.68 3.42-22.14 4.44zm38.88-2.58V39.26h11.46v20.16zm-13.62-20.16h11.88v20.16h-11.88zm11.88-21.96v20.22h-11.88V17.3zm13.2 20.22H367.2V17.3h11.46zm-26.82-21.96V65.6h1.74v-4.44h25.08v4.02h1.74V15.56z"/></svg>