<svg viewBox="0 0 403 80" xmlns="http://www.w3.org/2000/svg"><path d="M28.06 30.68h11.28v5.28H28.06zm0-10.8h11.28v5.04H28.06zm29.16 5.04H46.24v-5.04h10.98zm0 11.04H46.24v-5.28h10.98zm-21.3 10.08c4.32 2.28 9.36 6 11.7 8.58l5.1-4.86c-2.46-2.52-7.08-5.58-11.1-7.62H64.3V13.7H21.34v28.44h18.78zM21.76 63.8c2.88-3.96 4.92-10.02 6.36-15.12l-6.48-2.34c-1.26 4.92-3.54 10.32-6.3 13.92zm18.96-4.14c-3 0-3.54-.24-3.54-2.04v-9.78h-7.2v9.84c0 6.36 1.98 8.46 9.9 8.46h9.96c6.24 0 8.34-2.16 9.12-10.68-1.92-.42-4.98-1.56-6.42-2.64-.36 5.94-.84 6.84-3.3 6.84zm15.9-11.04c3.24 4.68 6.3 10.8 7.32 14.82l6.96-2.94c-1.2-4.2-4.56-10.02-7.92-14.52zm35.16-31.14c-2.28-1.62-6.96-4.2-9.96-5.88l-4.08 5.16c3.06 1.86 7.56 4.68 9.72 6.42zM88.9 33.26c-2.4-1.56-6.96-4.02-10.02-5.52l-4.02 5.1c3.12 1.86 7.62 4.5 9.72 6.18zm-4.92 10.08c-2.52 6.96-5.94 14.58-8.4 19.26l6.54 3.84c2.64-5.94 5.46-12.78 7.74-19.2zm18.96 6.48c-1.5 3.78-3.84 7.92-6.18 10.74 1.56.78 4.26 2.4 5.58 3.48 2.22-3.12 5.04-8.1 6.9-12.36zm5.28-10.8h13.86v3.36h-13.86zm0-8.1h13.86v3.3h-13.86zm20.46 16.56V25.82h-11.46c.78-1.26 1.56-2.58 2.34-3.9l-6.72-1.2h17.58V14.3h-37.5v16.56c0 9.72-.6 23.34-7.32 32.58 1.74.78 4.74 2.7 6 3.84 7.14-9.96 8.22-25.8 8.22-36.42V20.72h11.58c-.3 1.56-.84 3.36-1.44 5.1h-8.04v21.66h9.48v12.78c0 .66-.24.84-.9.84-.72 0-3.12 0-5.22-.06.78 1.74 1.56 4.26 1.86 6.12 3.66.06 6.48-.06 8.52-1.02 2.1-.96 2.58-2.64 2.58-5.7V47.48zm-8.76 4.08c1.92 3.78 4.32 8.82 5.4 11.94l6.6-2.88c-1.26-2.94-3.9-7.8-5.82-11.4zm52.2-21.6c1.26-2.16 2.7-5.34 4.2-8.46l-5.28-1.86c-.72 2.58-2.16 6.3-3.3 8.64zm-22.14-8.58c1.44 2.64 2.7 6.12 3.06 8.34l4.68-1.8c-.42-2.28-1.8-5.58-3.36-8.1zm-1.38 9V18.92h10.8v11.46zm28.44 0h-10.5V18.92h10.5zm12.78 17.28h-23.28V44.6h18.54v-5.58h-18.54v-2.88h17.7V13.16h-42.42v22.98h17.58v2.88h-18.48v5.58h18.48v3.06h-23.16v6.24h53.58zM142.6 67.52c2.7-2.88 5.16-7.2 6.48-11.22l-7.02-1.74c-1.38 3.72-3.78 7.74-6.36 9.96zm10.02-10.68c.54 3.24.78 7.44.78 10.08l7.02-.9c0-2.52-.48-6.66-1.14-9.84zm12 .18c1.2 3.18 2.4 7.32 2.76 9.9l7.2-1.62c-.48-2.52-1.86-6.6-3.18-9.6zm11.76-.3c2.64 3.3 5.76 7.86 7.02 10.74l7.14-2.52c-1.5-2.94-4.8-7.32-7.44-10.44zm30-45.3c-2.7 8.46-7.38 16.98-12.42 22.44 1.32 1.8 3.3 5.7 3.96 7.44 1.2-1.44 2.46-3.06 3.66-4.68V67.1h6.78V25.04c1.86-3.84 3.48-7.74 4.8-11.58zm27.54 39.36V35.12c2.04 5.64 4.56 11.04 7.38 15.66zm-14.28 0c2.82-4.44 5.34-9.72 7.32-15.24v15.24zm30.84-22.14v-6.78h-16.56V11.48h-6.96v10.38h-15.18v6.78h11.82c-3.3 9.48-8.88 18.96-14.94 24.36 1.62 1.2 3.9 3.72 5.1 5.4 1.92-1.92 3.66-4.26 5.34-6.78v5.52h7.86v9.66h6.96v-9.66h8.04v-5.28c1.56 2.34 3.12 4.5 4.8 6.36 1.26-1.86 3.72-4.26 5.34-5.52-5.82-5.46-11.34-14.82-14.64-24.06zm37.74-14.46c-.66 4.26-2.04 10.32-3.36 14.1l4.56 1.26c1.56-3.54 3.36-9.24 4.86-14.1zm-10.62 14.1c-.3-3.72-1.5-9.42-3.12-13.74l-4.98 1.26c1.44 4.32 2.58 10.14 2.76 13.86zm15.72 19.68c-1.14-1.5-6.3-7.2-8.52-9.3v-.96h8.1v-6.66h-8.1v-19.8h-6.6v19.8h-8.64v6.66h7.02c-1.92 5.46-4.98 11.88-7.98 15.54 1.08 1.98 2.64 5.22 3.3 7.38 2.34-3.3 4.5-8.16 6.3-13.26V67.1h6.6V46.46c1.68 2.52 3.3 5.28 4.2 7.14zm9.24 2.4H313v9.12h-10.44zM313 20.12v8.7h-10.44v-8.7zM313 44h-10.44v-8.82H313zm7.2 15.48V13.52h-24.48v45.96h-5.52v6.6h34.44v-6.6zM340 11.42c-2.7 8.46-7.38 16.98-12.42 22.44 1.32 1.8 3.3 5.7 3.96 7.44 1.2-1.44 2.46-3.06 3.66-4.68V67.1h6.78V25.04c1.86-3.84 3.48-7.74 4.8-11.58zm27.54 39.36V35.12c2.04 5.64 4.56 11.04 7.38 15.66zm-14.28 0c2.82-4.44 5.34-9.72 7.32-15.24v15.24zm30.84-22.14v-6.78h-16.56V11.48h-6.96v10.38H345.4v6.78h11.82c-3.3 9.48-8.88 18.96-14.94 24.36 1.62 1.2 3.9 3.72 5.1 5.4 1.92-1.92 3.66-4.26 5.34-6.78v5.52h7.86v9.66h6.96v-9.66h8.04v-5.28c1.56 2.34 3.12 4.5 4.8 6.36 1.26-1.86 3.72-4.26 5.34-5.52-5.82-5.46-11.34-14.82-14.64-24.06z"/></svg>