<svg viewBox="0 0 401 80" xmlns="http://www.w3.org/2000/svg"><path d="M58.3 25.64H45.52v-6.48H58.3zm0 11.16H45.52v-6.6H58.3zm-31.32-6.6h13.14v6.6H26.98zm0-11.04h13.14v6.48H26.98zm36.84-4.86H21.7v27.36h42.12zM51.94 50.36c-2.7-2.64-7.98-6.12-12.36-8.28l-3.66 3.48c4.38 2.34 9.6 6 12.06 8.64zm-31.08 13.2c2.88-3.96 4.98-10.08 6.42-14.94l-4.98-1.86c-1.32 4.8-3.54 10.44-6.42 14.04zm18.72-3.06c-3.12 0-3.72-.3-3.72-1.98V47.6h-5.64v10.92c0 5.46 1.8 7.02 8.82 7.02H50.2c5.82 0 7.5-1.98 8.22-10.26-1.5-.36-3.9-1.2-5.1-2.1-.36 6.36-.78 7.32-3.54 7.32zm17.46-12.18c3.3 4.62 6.6 10.74 7.74 14.76l5.4-2.28c-1.26-4.14-4.8-10.08-8.16-14.58zm34.38-30c-2.34-1.68-6.9-4.32-9.96-6.06l-3.3 3.9c3.18 2.04 7.62 4.86 9.84 6.6zm-2.88 15.66c-2.4-1.62-6.9-4.14-10.02-5.82l-3.24 4.02c3.24 1.86 7.68 4.62 9.9 6.3zm-3.42 9.72c-2.64 6.84-6.24 14.52-8.76 19.2l5.04 3c2.76-5.64 5.82-12.84 8.16-19.08zm13.5-24h31.26v-5.04H93.16v16.38c0 9.72-.6 23.22-7.32 32.58 1.32.6 3.72 2.04 4.68 2.94 7.02-9.9 8.1-25.08 8.1-35.52zm4.5 30c-1.56 3.84-4.14 8.04-6.72 10.86 1.26.66 3.42 1.98 4.44 2.7 2.46-3 5.34-7.86 7.26-12.18zm3.36-11.46h16.2v4.38h-16.2zm0-8.28h16.2v4.32h-16.2zm21.42 16.8v-21h-12.3c.72-1.44 1.56-2.94 2.34-4.56l-6.24-1.14c-.36 1.62-1.02 3.84-1.62 5.7h-8.58v21h10.14v14.28c0 .66-.24.9-.96.9s-3.18.06-5.7-.06c.54 1.38 1.26 3.42 1.44 4.8 3.9.06 6.54 0 8.28-.84 1.8-.72 2.22-2.1 2.22-4.62V46.76zm-7.98 4.2c2.16 3.78 4.8 8.82 6.06 11.82l5.1-2.22c-1.32-2.94-4.14-7.8-6.36-11.4zm51.3-21c1.5-2.28 3.24-5.76 4.8-8.88l-4.26-1.56c-.9 2.7-2.64 6.6-4.02 9.06zm-21.18-9.06c1.62 2.7 3.06 6.36 3.48 8.64l3.78-1.44c-.48-2.34-1.98-5.82-3.66-8.46zm-2.46 9.72V18.38h12.54v12.24zm30.42 0h-12.3V18.38H178zm11.52 17.46H165.7V43.7h18.96v-4.44H165.7v-4.02h17.94V13.82H142.3v21.42h17.82v4.02h-18.78v4.44h18.78v4.38h-23.58V53h52.98zm-47.88 18.84c2.76-2.7 5.16-7.02 6.6-10.92l-5.4-1.38c-1.44 3.72-3.9 7.74-6.48 9.96zm11.46-10.44c.66 3.24.96 7.44.96 9.9l5.52-.66c0-2.46-.54-6.54-1.26-9.66zm12.12.18c1.26 3.12 2.52 7.26 3 9.78l5.52-1.32c-.48-2.52-1.92-6.54-3.24-9.54zm11.94-.3c2.76 3.24 5.94 7.74 7.32 10.56l5.52-2.1c-1.56-2.88-4.92-7.08-7.68-10.2zm30.3-44.4c-2.88 8.7-7.56 17.46-12.72 23.1.96 1.26 2.58 4.32 3.12 5.64 1.5-1.8 2.94-3.72 4.44-5.88v31.8h5.34V25.58c1.92-3.96 3.72-8.04 5.04-12.12zm42.6 16.44v-5.28H232.9V11.96h-5.46v11.16h-16.08v5.28h13.14c-3.54 9.84-9.42 19.62-15.78 24.9 1.2.96 3.12 2.88 3.96 4.26 5.88-5.64 11.1-14.7 14.76-24.54v18.06h-8.94v5.04h8.94v10.26h5.46V56.12h8.88v-5.04h-8.88V32.66c3.54 9.78 8.7 19.14 14.34 24.72 1.02-1.5 2.88-3.42 4.26-4.44-6.18-5.22-12.06-14.88-15.48-24.54zm49.2 13.74V27.62h15.6v14.52zm-21.36 0V27.62h15.54v14.52zm21.36-19.98V11.72h-5.82v10.44h-21.12v28.98h5.58V47.6h15.54v19.08h5.82V47.6h15.6v3.24h5.82V22.16zm84.36 20.88V38.3h-24.3v-4.56h18.72v-4.62h-18.72v-3.6h-.36c1.2-1.38 2.34-2.82 3.42-4.5h3.3c1.62 2.22 3.3 4.98 4.02 6.72l4.8-1.98c-.6-1.38-1.68-3.06-2.82-4.74h11.46V16.4h-18.12c.6-1.26 1.14-2.46 1.62-3.78l-5.4-1.26c-1.14 3.42-3.12 6.72-5.4 9.48V16.4h-14.52c.6-1.2 1.2-2.4 1.68-3.66l-5.34-1.38c-1.98 5.1-5.46 10.32-9.24 13.62 1.32.72 3.6 2.28 4.62 3.18 1.92-1.92 3.9-4.44 5.64-7.14h1.68c1.08 2.22 2.16 4.86 2.64 6.54l4.8-1.86c-.36-1.26-1.14-3-1.92-4.68h9.78c-.9 1.14-1.92 2.1-3 3 .66.36 1.5.9 2.34 1.5h-1.44v3.6H335.5v4.62h18.06v4.56h-24v4.74h35.94v4.5h-33.96v4.8h11.58l-3.24 2.46c3.6 2.64 7.74 6.42 9.54 9.18l4.32-3.54c-1.74-2.52-5.46-5.76-8.82-8.1h20.58v8.16c0 .84-.24 1.02-1.32 1.08-1.02.06-4.56.06-8.16-.06.78 1.38 1.74 3.66 2.04 5.22 4.74 0 8.04-.06 10.26-.9 2.22-.78 2.94-2.28 2.94-5.22v-8.28h10.68v-4.8h-10.68v-4.5z"/></svg>