<svg viewBox="0 0 403 80" xmlns="http://www.w3.org/2000/svg"><path d="M23.6 64.04c2.76-4.02 4.8-10.02 6.24-15.24l-7.92-2.88c-1.26 5.04-3.54 10.2-6.18 13.74zm6.48-32.76h9.42v3.78h-9.42zm0-10.62h9.42v3.66h-9.42zm27 3.66h-9.12v-3.66h9.12zm0 10.74h-9.12v-3.78h9.12zm-14.34 23.7c-2.7 0-3.18-.18-3.18-2.04v-8.58c3.42 2.16 6.9 4.86 8.64 6.96l6.24-5.94c-1.98-2.16-5.64-4.68-9.12-6.6h20.4v-29.4H21.86v29.4h19.32l-4.26 4.02c.84.48 1.74 1.02 2.64 1.56h-8.82v8.7c0 7.32 2.1 9.78 10.86 9.78h8.82c6.84 0 9.24-2.22 10.2-11.04-2.34-.54-6.12-1.86-7.86-3.18-.36 5.58-.78 6.36-3.06 6.36zm14.58-9.84c3.06 4.68 6 10.8 6.84 14.82l8.52-3.6c-1.08-4.26-4.38-10.02-7.56-14.46zm35.82-32.34c-2.34-1.56-7.08-4.02-9.96-5.52l-5.04 6.24c3 1.86 7.62 4.56 9.72 6.24zm-3 15.96c-2.34-1.5-6.96-3.84-9.84-5.28l-4.98 6.3c3 1.74 7.5 4.38 9.6 6zm-6.3 10.38c-2.46 7.2-5.7 14.7-8.04 19.44l7.98 4.62c2.58-6.12 5.04-12.78 7.2-19.32zm27.18-3.06h11.34v2.22h-11.34zm11.34-5.7h-11.34V32h11.34zm8.04 14.04V25.88h-10.5c.72-1.02 1.5-2.16 2.22-3.3l-4.92-.84h14.58v-7.8H93.56v16.74c0 9.66-.54 23.4-7.26 32.58 2.1.9 5.82 3.24 7.38 4.62 7.2-9.96 8.34-26.4 8.34-37.2v-8.94h10.02c-.3 1.26-.78 2.76-1.26 4.14h-7.44V48.2h8.82v11.28c0 .6-.24.78-.9.78-.54 0-2.22 0-3.78-.06 1.44-2.52 2.88-5.4 3.9-7.98L103.7 50c-1.32 3.6-3.54 7.8-5.64 10.56 1.92.96 5.16 2.88 6.78 4.14.66-1.02 1.38-2.22 2.16-3.54.72 2.04 1.5 4.56 1.74 6.48 3.6.06 6.48-.06 8.82-1.2 2.4-1.14 2.88-3.18 2.88-6.72V48.2zm-9.6 3.9c1.68 3.84 3.84 8.94 4.74 12.06l8.04-3.42c-1.08-3-3.48-7.92-5.22-11.52zm32.22 4.92c.48 3.36.66 7.68.6 10.32l8.64-1.02c0-2.58-.48-6.84-1.08-10.08zm11.94.3c1.08 3.24 2.16 7.5 2.46 10.08l8.82-1.98c-.42-2.64-1.74-6.66-3-9.78zm-14.04-35.46c1.26 2.52 2.34 5.88 2.58 7.98l5.64-2.1c-.36-2.16-1.56-5.34-2.94-7.74zm-.24 8.16v-10.5h8.88v10.5zm26.34-8.28l-5.76-1.98c-.54 2.46-1.68 5.94-2.64 8.16l5.34 1.98c.9-1.74 1.92-4.14 3.06-6.66v6.78h-8.7v-10.5h8.7zm14.04 32.94v-7.56h-22.74v-1.68h18.18v-6.72h-18.18v-1.74h17.52V12.56H142.4v24.42h17.16v1.74h-17.94v6.72h17.94v1.68H137v7.56h5.22c-1.32 3.72-3.66 7.56-6.06 9.66l8.46 3.6c2.7-2.88 5.1-7.32 6.36-11.46l-7.38-1.8h39.9l-6.9 2.22c2.46 3.42 5.46 8.16 6.6 11.1l8.82-3c-1.38-2.94-4.38-7.14-6.9-10.32zM236 50.42V37.76c1.62 4.5 3.48 8.82 5.58 12.66zm-13.92 0c1.98-3.6 3.84-7.62 5.4-11.82v11.82zm29.76-21.54V20.6H236v-9.54h-8.52v9.54H213.2v8.28h10.56c-3.12 8.94-8.1 17.82-13.74 23.34V24.38c1.74-3.66 3.24-7.32 4.5-10.92l-8.22-2.52c-2.64 8.22-7.2 16.5-12.06 21.78 1.5 2.16 3.84 7.08 4.62 9.18.96-1.08 1.92-2.28 2.88-3.54v29.28h8.28V53.12c1.92 1.56 4.44 4.32 5.76 6.18 1.74-1.92 3.42-4.14 4.92-6.6v5.46h6.78v9.06H236v-9.06h7.14v-4.98c1.32 2.22 2.7 4.2 4.14 5.94 1.5-2.28 4.44-5.28 6.48-6.78-5.52-5.58-10.62-14.64-13.8-23.46zM291.5 38.9l-3.96 1.02v-9.6h3.96v-8.28h-3.96V10.7h-8.28v11.34h-1.5c.18-1.74.3-3.54.42-5.28l-6.72-1.26c-.36 7.2-1.26 15.06-2.76 19.8 1.68.66 4.86 2.1 6.3 3.12.66-2.22 1.2-5.04 1.68-8.1h2.58v11.7c-3.54.9-6.84 1.62-9.42 2.16l1.74 8.88c2.34-.66 4.92-1.44 7.68-2.22V67.7h8.28V48.38c1.56-.48 3.12-.96 4.62-1.44zm34.62-3.9v-8.04h-12.54v-3.72h10.02v-7.86h-10.02v-4.74h-8.28v4.74h-9.72v7.86h9.72v3.72h-13.14V35h19.74v4.44h-18.42v7.98h6.06l-4.5 2.94c2.28 2.82 5.1 6.72 6.24 9.24l6.6-4.5c-1.14-2.16-3.54-5.22-5.7-7.68h9.72V58.1c0 .78-.3.96-1.2.96-.96 0-4.14 0-6.6-.12 1.08 2.4 2.16 6.12 2.46 8.64 4.32 0 7.74-.18 10.32-1.5 2.64-1.32 3.24-3.66 3.24-7.8V47.42h5.28v-7.98h-5.28V35zm28.74 12.72c-1.2-1.32-6.06-6.3-8.34-8.34v-.66h7.56v-8.1h-7.56v-2.4l4.56 1.2c1.5-3.66 3.24-9.42 4.8-14.52l-7.26-1.44c-.42 3.3-1.2 7.62-2.1 11.22V10.82h-8.04v14.1c-.48-3.48-1.38-7.62-2.58-11.04l-6 1.5c1.38 4.5 2.4 10.5 2.46 14.34l6.12-1.56v2.46h-8.22v8.1h6.12c-1.74 4.86-4.38 10.5-7.14 13.86 1.26 2.46 3.12 6.42 3.84 9.12 1.98-3 3.84-7.08 5.4-11.46v17.28h8.04v-18.6c1.26 2.04 2.4 4.02 3.18 5.58zm10.08 3.42h8.46v7.5h-8.46zm8.46-30.06v7.2h-8.46v-7.2zm0 22.32h-8.46v-7.38h8.46zm8.76 15.24v-45.6H356.6v45.6h-4.98v8.04h34.62v-8.04z"/></svg>